<?xml version="1.0" encoding="UTF-8"?>
<svg width="66.297mm" height="83.334mm" version="1.1" viewBox="0 0 66.297 83.334" xmlns="http://www.w3.org/2000/svg" xmlns:cc="http://creativecommons.org/ns#" xmlns:dc="http://purl.org/dc/elements/1.1/" xmlns:rdf="http://www.w3.org/1999/02/22-rdf-syntax-ns#" xmlns:xlink="http://www.w3.org/1999/xlink">
<defs>
<linearGradient id="c" x1="-160.85" x2="-149.3" y1="122.05" y2="97.969" gradientTransform="matrix(-1.8242 -.87691 -.7052 2.2683 -565.28 -331.39)" gradientUnits="userSpaceOnUse" xlink:href="#b"/>
<linearGradient id="b">
<stop stop-color="#387eb8" offset="0"/>
<stop stop-color="#366994" offset="1"/>
</linearGradient>
<linearGradient id="h" x1="-169.75" x2="-132.82" y1="78.614" y2="80.514" gradientTransform="matrix(-.89929 -1.9555 -1.7367 1.0126 -347.93 -408.1)" gradientUnits="userSpaceOnUse" xlink:href="#a"/>
<linearGradient id="a">
<stop stop-color="#ffe052" offset="0"/>
<stop stop-color="#ffc331" offset="1"/>
</linearGradient>
<linearGradient id="f" x1="-169.75" x2="-132.82" y1="78.614" y2="80.514" gradientTransform="matrix(-.47685 -2.3585 1.8967 -.59296 -518.55 -382.3)" gradientUnits="userSpaceOnUse" xlink:href="#a"/>
<linearGradient id="g" x1="-152" x2="-132.82" y1="77.864" y2="80.514" gradientTransform="matrix(.47685 -2.3585 -1.8967 -.59296 -104.93 -369.65)" gradientUnits="userSpaceOnUse" xlink:href="#b"/>
<linearGradient id="e" x1="-165.41" x2="-142.27" y1="69.835" y2="106.3" gradientTransform="matrix(.89929 -1.9555 1.7367 1.0126 -276.94 -408.57)" gradientUnits="userSpaceOnUse" xlink:href="#b"/>
<linearGradient id="d" x1="-167.98" x2="-140.73" y1="54.32" y2="108.56" gradientTransform="matrix(1.8242 -.87691 .7052 2.2683 -51.48 -311.57)" gradientUnits="userSpaceOnUse" xlink:href="#a"/>
<linearGradient id="j" x1="11.18" x2="76.208" y1="-2124.2" y2="-2131.7" gradientTransform="matrix(1.2814 0 0 .99586 -318.61 2101.2)" gradientUnits="userSpaceOnUse" xlink:href="#b"/>
<linearGradient id="k" x1="11.95" x2="-2.3082" y1="-2137.6" y2="-2226.8" gradientTransform="translate(-301.12,2109.9)" gradientUnits="userSpaceOnUse" xlink:href="#a"/>
<linearGradient id="i" x1="12.139" x2=".79947" y1="-2139.8" y2="-2229.4" gradientTransform="translate(-301.12,2109.9)" gradientUnits="userSpaceOnUse" xlink:href="#a"/>
</defs>
<metadata>
<rdf:RDF>
<cc:Work rdf:about="">
<dc:format>image/svg+xml</dc:format>
<dc:type rdf:resource="http://purl.org/dc/dcmitype/StillImage"/>
<dc:title/>
</cc:Work>
</rdf:RDF>
</metadata>
<g transform="matrix(.31404 0 0 .31404 130.24 38.372)">
<path d="m-386.5 39.875c6.0253 10.139 15.298 14.586 26.03 15.082 26.779 1.2381 64.237-23.901 81.381-44.828-0.52104-0.6669-14.066-18.994-33.698 3.442-23.086 20.464-45.404 19.322-55.402 8.0512-15.083-17.002-2.9861-46.252 14.662-73.723 6.338-9.8656 23.046-27.492 25.878-31.29-2.4377-0.01-4.4355 0.1773-7.1921-0.022-22.237 22.429-79.984 84.674-51.659 123.29h-1e-4z" fill="url(#c)"/>
<path d="m-411.79-22.904c-3.083 42.884 66.959 62.055 101.46 60.072 16.51-0.07 5.0339-9.5874 21.909-22.329-28.664-5.4257-89.024-1.8718-97.52-34.432-5.3976-23.635 19.996-35.634 47.852-41.104 20.007-3.9285 16.275-1.9792 42.759-6.0357-27.403-8.1504-113.16-2.1095-116.46 43.828z" fill="url(#h)"/>
<path d="m-244.09-116.25c33.836 31.817-13.649 106.49-40.659 133.27-12.409 13.543-9.4115-3.7844-29.549-0.4236 18.28-28.101 65.586-74.884 52.794-108.82-4.931-11.999-15.744-20.621-42.703-7.0241-7.3268 3.6955-14.857 6.5727-23.445 15.912-5.195 0.928-3.8429 0.7302-8.8772 1.6189 7.828-8.7546 68.476-57.072 92.439-34.539z" fill="url(#f)"/>
<path d="m-379.39-103.61c-27.54 32.936 13.649 106.49 40.659 133.27 12.409 13.543 9.4115-3.7844 29.549-0.4236-18.28-28.101-65.586-74.884-52.794-108.82 9.8621-23.999 35.944-13.006 60.028 5.4156 17.298 13.231 13.356 11.77 35.582 30.231-15.732-29.316-83.523-94.96-113.02-59.678z" fill="url(#g)"/>
<path d="m-213.08-23.376c3.3979 36.442-57.629 61.716-92.129 59.734-17.028-12.023-9.304-5.3558-17.028-12.023 10.601-13.414-9.227-3.1418 0.20578-13.273 38.596 1.3889 81.08-2.9103 85.511-33.159 3.0752-20.996-22.404-33.601-50.259-39.07-10.003-1.9643-29.123-1.748-33.998-2.2921-3.7661-4.5202-0.90123-1.1149-5.1147-6.1929 28.606-1.3731 109.04 5.8076 112.81 46.277z" fill="url(#e)"/>
<path d="m-230.26 59.692c-21.06 35.439-79.479 3.6376-104.16-26.422 1.327-5.7134 4.4691-25.487 4.8524-31.42 9.7938 12.042 54.122 66.195 80.993 39.59 15.083-17.002 2.986-46.252-14.662-73.723-6.3379-9.8655-33.643-37.727-35.471-39.434 4.9327 0.5675 5.9374 0.7397 12.29 1.2197 22.237 22.429 76.079 77.541 56.154 130.19z" fill="url(#d)"/>
<path d="m-405.87 143.17q-3.978 0-6.4643-2.4863-2.4034-2.4863-2.4034-7.4588 0-2.0719 0.663-5.3869l5.6355-26.603h11.934l-5.967 28.178q-0.24863 0.99451-0.24863 2.0719 0 3.6465 2.4863 3.6465 2.3205 0 3.978-1.9061 1.6575-1.989 2.652-5.3869l5.6355-26.603h11.934l-5.967 28.178q-0.41438 2.0719-0.41438 2.9835 0 2.7349 2.8178 2.7349 3.8123 0 7.0444-4.8068 3.315-4.8068 5.304-11.437t1.989-11.437q-0.16575 0.41438-1.0774 0.66301-0.91163 0.16575-1.5746 0.16575-1.4089 0-2.2376-1.326-0.74588-1.326-0.74588-2.9006 0-1.989 1.2431-3.2321 1.326-1.2431 3.8951-1.2431 2.7349 0 3.978 2.0719 1.2431 1.989 1.2431 5.1383 0 7.4588-2.5691 15.995-2.5691 8.4533-7.8732 14.42-5.304 5.967-13.177 5.967-4.0609 0-6.63-1.7404t-3.315-5.2212q-4.641 6.9615-11.768 6.9615z"/>
<path d="m-347.52 143.17q-6.1328 0-9.5307-3.1493-3.3979-3.2321-3.3979-10.028 0-5.7184 2.2376-12.597 2.2376-6.8787 7.293-11.851 5.0554-5.0554 12.846-5.0554 9.1163 0 9.1163 7.956 0 4.641-2.652 8.5362t-7.0444 6.2985q-4.3924 2.3205-9.3649 2.652-0.16576 2.4863-0.16576 3.315 0 4.0609 1.4089 5.5526 1.4089 1.4089 4.5581 1.4089 4.4753 0 7.6245-2.0719 3.2321-2.0719 7.0444-6.2985h2.8178q-9.1992 15.332-22.791 15.332zm0.16575-21.216q3.0664-0.16575 5.8013-2.1548 2.8178-1.989 4.4753-5.0554 1.7404-3.0664 1.7404-6.4643t-2.0719-3.3979q-2.9835 0-5.8842 5.2212-2.8178 5.2212-4.0609 11.851z"/>
<path d="m-316.46 143.17q-5.6355 0-8.619-2.7349-2.9835-2.8178-2.9835-7.8732 0-2.4863 0.58013-4.7239l8.8677-41.521 12.266-1.6575-3.978 18.647q2.3205-1.4089 3.8123-1.8233 1.4918-0.49725 2.9835-0.49725 9.7793 0 9.7793 14.172 0 5.7184-2.2376 12.266-2.1548 6.4643-7.293 11.105-5.0554 4.641-13.177 4.641zm4.641-8.0389q2.5691 0 4.8068-3.1493 2.2376-3.2321 3.5636-7.956 1.326-4.8068 1.326-9.1992 0-3.315-1.1603-5.6355-1.1602-2.3205-3.2321-2.3205-1.2431 0-2.8178 0.41437-1.4918 0.3315-2.0719 1.0774l-4.5581 21.05q-0.24863 0.99451-0.24863 1.9061 0 3.8123 4.3924 3.8123z"/>
<path d="m-281.29 143.17q-4.8068 0-7.5417-2.4034-2.652-2.4863-2.652-7.3759 0-1.989 0.41438-3.978l5.967-28.178h11.934l-5.967 28.178q-0.41437 2.0719-0.41437 2.9835 0 2.7349 2.8178 2.7349 3.8123 0 7.0444-4.8068 3.315-4.8068 5.304-11.437t1.989-11.437q-0.16575 0.41438-1.0774 0.66301-0.91163 0.16575-1.5746 0.16575-1.4089 0-2.2376-1.326-0.74587-1.326-0.74587-2.9006 0-1.989 1.2431-3.2321 1.326-1.2431 3.8951-1.2431 2.7349 0 3.978 2.0719 1.2431 1.989 1.2431 5.1383 0 7.4588-2.5691 15.995-2.5691 8.4533-7.8732 14.42t-13.177 5.967z"/>
<path d="m-242.58 96.763q-2.7349 0-4.641-1.9061t-1.9061-4.641 1.9061-4.641q1.9061-1.989 4.641-1.989t4.641 1.989q1.989 1.9061 1.989 4.641t-1.989 4.641q-1.9061 1.9061-4.641 1.9061zm-5.6355 46.41q-3.978 0-6.4643-2.4863-2.4034-2.4863-2.4034-7.4588 0-2.0719 0.663-5.3869l5.6355-26.603h11.934l-5.967 28.178q-0.3315 1.2431-0.3315 2.652 0 1.6575 0.74588 2.4034 0.82875 0.66301 2.652 0.66301 1.4918 0 2.652-0.49726-0.3315 4.1438-2.9835 6.3814-2.5691 2.1548-6.1328 2.1548zm30.25-37.46h-4.641q-2.3205 0-3.4808 0.24863-1.0774 0.24862-1.0774 1.0774 0 0.16575 0.41438 0.41437 0.49725 0.16575 0.49725 1.4089 0 2.1548-1.326 3.315-1.326 1.0774-3.1493 1.0774-1.5746 0-2.7349-0.91163-1.0774-0.9945-1.0774-2.7349t1.1602-3.7294q1.2431-1.989 3.3979-3.315 2.2376-1.326 5.0554-1.326h21.299l-20.304 35.056q0.49725 0 1.8233 0.16575 2.8178 0.3315 4.4753 0.3315 3.5636 0 3.8951-1.6575-0.74587-0.0829-1.1602-0.49726-0.41438-0.49725-0.41438-1.2431 0-1.326 1.2431-2.4034 1.2431-1.1603 3.3979-1.1603 1.8233 0 2.7349 1.0774t0.91163 2.9006q0 1.989-1.2431 4.0609t-3.5636 3.4808q-2.3205 1.326-5.304 1.326h-21.962z"/>
<path d="m-248.2-2.41c4.308-3.2104 6.7632-7.0502 8.5586-9.8935 1.3137 2.2444 10.384 20.083 10.296 22.472-0.70903 0.7402-8.5453 6.2423-13.289 9.2298-0.33409-7.6902-2.2555-12.855-5.5657-21.808z" fill="url(#j)"/>
<path d="m-271.9-42.718c0.97416-1.5374 3.6124-6.3645 4.324-7.905 13.36 13.093 11.314 11.838 16.927 21.326-0.69307 1.2215-4.4606 7.5904-5.3824 9.0668-1.0723-2.1445-9.9738-14.918-15.868-22.488z" fill="url(#k)"/>
<path d="m-261.96-63.625-3.2128 9.0715 20.978 12.284 5.4806-12.662z" fill="url(#i)"/>
</g>
<g fill="#808080" stroke-width=".10361" aria-label="TM">
<path d="m60.806 1.9142v2.5356h-0.38448v-2.5356h-0.97942v-0.31568h2.3433v0.31568z"/>
<path d="m64.646 4.4498v-1.9022q0-0.31568 0.01821-0.60708-0.09916 0.36222-0.17808 0.56661l-0.73659 1.9427h-0.27116l-0.74671-1.9427-0.11332-0.34401-0.06678-0.2226 0.0061 0.22462 0.0081 0.38246v1.9022h-0.34404v-2.8513h0.50792l0.75885 1.9771q0.04047 0.11939 0.0769 0.257 0.03845 0.13558 0.05059 0.19629 0.01619-0.080944 0.06678-0.24486 0.05261-0.16594 0.07083-0.20843l0.74469-1.9771h0.49578v2.8513z"/>
</g>
</svg>
