<?xml version="1.0" encoding="UTF-8" standalone="no"?>
<svg
   xmlns:dc="http://purl.org/dc/elements/1.1/"
   xmlns:cc="http://creativecommons.org/ns#"
   xmlns:rdf="http://www.w3.org/1999/02/22-rdf-syntax-ns#"
   xmlns:svg="http://www.w3.org/2000/svg"
   xmlns="http://www.w3.org/2000/svg"
   xmlns:xlink="http://www.w3.org/1999/xlink"
   xmlns:sodipodi="http://sodipodi.sourceforge.net/DTD/sodipodi-0.dtd"
   xmlns:inkscape="http://www.inkscape.org/namespaces/inkscape"
   viewBox="0 0 715.78658 284.8641"
   version="1.1"
   id="svg3902"
   sodipodi:docname="webviz_logo.svg"
   inkscape:version="0.92.4 (33fec40, 2019-01-16)"
   width="715.78656"
   height="284.86407">
  <metadata
     id="metadata3906">
    <rdf:RDF>
      <cc:Work
         rdf:about="">
        <dc:format>image/svg+xml</dc:format>
        <dc:type
           rdf:resource="http://purl.org/dc/dcmitype/StillImage" />
        <dc:title></dc:title>
      </cc:Work>
    </rdf:RDF>
  </metadata>
  <sodipodi:namedview
     pagecolor="#ffffff"
     bordercolor="#666666"
     borderopacity="1"
     objecttolerance="10"
     gridtolerance="10"
     guidetolerance="10"
     inkscape:pageopacity="0"
     inkscape:pageshadow="2"
     inkscape:window-width="1853"
     inkscape:window-height="1025"
     id="namedview3904"
     showgrid="false"
     inkscape:zoom="1"
     inkscape:cx="534.79148"
     inkscape:cy="327.00516"
     inkscape:window-x="67"
     inkscape:window-y="27"
     inkscape:window-maximized="1"
     inkscape:current-layer="layer5"
     inkscape:lockguides="true"
     showguides="false"
     fit-margin-top="0"
     fit-margin-left="0"
     fit-margin-right="0"
     fit-margin-bottom="0" />
  <!-- Safari requires the xlink namespace and can't use href directly -->
  <defs
     id="defs3897">
    <linearGradient
       inkscape:collect="always"
       id="linearGradient6546">
      <stop
         style="stop-color:#000000;stop-opacity:1;"
         offset="0"
         id="stop6542" />
      <stop
         style="stop-color:#000000;stop-opacity:0;"
         offset="1"
         id="stop6544" />
    </linearGradient>
    <style
       id="style3876">
            use, use:target ~ use:last-child {
                display: none;
            }
            use:target, use:last-child {
                display: inline;
            }
        </style>
    <symbol
       id="logo"
       viewBox="0 0 285 235">
      <path
         d="m 241.665,182.894 c -0.301,-0.754 -0.943,-1.029 -1.658,-0.604 -0.716,0.427 -14.17,8.443 -14.17,8.443 v -7.387 c 0,-0.829 -0.528,-1.131 -1.281,-0.829 l -4.372,1.582 c -0.603,0.227 -0.83,0.679 -0.83,1.282 v 32.478 c 0,0.678 0.453,1.13 1.131,1.13 h 4.221 c 0.679,0 1.131,-0.452 1.131,-1.13 v -19.894 c 0,0 15.864,-9.79 16.507,-10.175 0.642,-0.385 0.971,-0.71 0.677,-1.432 -0.321,-0.791 -1.356,-3.464 -1.356,-3.464"
         id="path3878"
         inkscape:connector-curvature="0" />
      <path
         d="m 7.993,196.603 c 1.432,-5.2 5.502,-8.366 11.23,-8.366 6.256,0 9.573,3.693 9.874,8.366 z m 27.963,1.96 c 0,-9.045 -6.18,-16.657 -16.506,-16.657 -10.176,0 -18.618,7.311 -18.618,19.219 0,10.854 7.085,18.768 18.994,18.768 5.427,0 10.854,-1.884 14.924,-5.502 0.528,-0.452 0.528,-1.055 0.151,-1.583 l -2.035,-3.165 c -0.377,-0.603 -0.98,-0.679 -1.583,-0.227 -3.693,2.714 -7.462,4.071 -11.457,4.071 -7.612,0 -11.758,-4.975 -12.286,-11.231 h 27.302 c 0.698,0 1.114,-0.506 1.114,-1.115 z"
         id="path3880"
         inkscape:connector-curvature="0" />
      <path
         d="m 59.733,213.487 c -6.406,0 -11.909,-4.372 -11.909,-12.663 0,-8.291 5.503,-12.587 11.909,-12.587 6.708,0 11.909,4.296 11.909,12.587 0,8.367 -5.201,12.663 -11.909,12.663 m 12.965,20.577 h 4.221 c 0.678,0 1.13,-0.452 1.13,-1.131 v -49.595 c 0,-0.83 -0.527,-1.13 -1.357,-0.83 l -4.296,1.583 c -0.603,0.227 -0.829,0.678 -0.829,1.282 v 1.583 c -2.336,-3.166 -6.935,-5.05 -11.909,-5.05 -9.874,0 -18.467,7.386 -18.467,18.994 0,10.25 6.633,18.993 18.09,18.993 5.201,0 10.176,-2.336 12.286,-4.973 v 18.013 c 0,0.679 0.452,1.131 1.131,1.131"
         id="path3882"
         inkscape:connector-curvature="0" />
      <path
         d="m 99.52,219.893 c 3.919,0 8.216,-1.281 11.005,-5.351 v 3.317 c 0,0.678 0.452,1.13 1.13,1.13 h 4.221 c 0.679,0 1.131,-0.452 1.131,-1.13 v -34.446 c 0,-0.905 -0.528,-1.206 -1.282,-0.905 l -4.372,1.583 c -0.602,0.227 -0.828,0.678 -0.828,1.281 v 18.09 c 0,6.407 -4.146,10.025 -9.799,10.025 -5.578,0 -9.346,-3.543 -9.346,-10.025 v -20.125 c 0,-0.829 -0.528,-1.13 -1.281,-0.829 l -4.372,1.583 c -0.603,0.227 -0.829,0.678 -0.829,1.281 v 18.316 c 0,10.703 6.482,16.205 14.622,16.205"
         id="path3884"
         inkscape:connector-curvature="0" />
      <path
         d="m 125.825,178.664 4.598,-1.508 c 0.754,-0.225 1.055,-0.602 1.055,-1.356 v -5.502 c 0,-0.679 -0.528,-1.206 -1.357,-0.905 l -4.523,1.659 c -0.677,0.225 -1.054,0.527 -1.054,1.28 v 5.276 c 0,0.829 0.452,1.358 1.281,1.056"
         id="path3886"
         inkscape:connector-curvature="0" />
      <path
         d="m 125.9,218.989 h 4.22 c 0.679,0 1.132,-0.452 1.132,-1.13 v -34.521 c 0,-0.829 -0.528,-1.13 -1.282,-0.829 l -4.372,1.583 c -0.603,0.226 -0.829,0.677 -0.829,1.281 v 32.486 c 0,0.678 0.452,1.13 1.131,1.13"
         id="path3888"
         inkscape:connector-curvature="0" />
      <path
         d="m 140.144,218.989 h 4.221 c 0.678,0 1.131,-0.452 1.131,-1.13 v -19.522 c 0,-6.407 4.145,-10.025 9.798,-10.025 5.578,0 9.346,3.543 9.346,10.025 v 19.522 c 0,0.678 0.453,1.13 1.131,1.13 h 4.221 c 0.678,0 1.131,-0.452 1.131,-1.13 v -19.748 c 0,-10.703 -6.483,-16.205 -14.623,-16.205 -3.919,0 -8.215,1.281 -11.004,5.352 v -3.92 c 0,-0.829 -0.528,-1.13 -1.282,-0.829 l -4.372,1.583 c -0.602,0.226 -0.828,0.677 -0.828,1.281 v 32.486 c 0,0.678 0.452,1.13 1.13,1.13"
         id="path3890"
         inkscape:connector-curvature="0" />
      <path
         d="m 195.276,213.562 c -7.462,0 -11.984,-5.577 -11.984,-12.662 0,-7.086 4.522,-12.663 11.984,-12.663 7.387,0 11.909,5.577 11.909,12.663 0,7.085 -4.522,12.662 -11.909,12.662 m 0,-31.656 c -10.854,0 -18.617,8.064 -18.617,18.994 0,10.929 7.763,18.993 18.617,18.993 10.854,0 18.542,-8.064 18.542,-18.993 0,-10.93 -7.688,-18.994 -18.542,-18.994"
         id="path3892"
         inkscape:connector-curvature="0" />
      <path
         d="m 176.919,31.419 v 38.515 c 0,1.14 0.572,2.195 1.561,2.764 l 33.372,19.227 c 1.416,0.815 3.222,-0.206 3.223,-1.84 V 51.57 c 0.001,-1.141 -0.608,-2.196 -1.597,-2.765 L 180.106,29.579 c -1.416,-0.815 -3.185,0.205 -3.187,1.84 M 279.71,1.345 231.664,29.024 c -1.424,0.82 -2.301,2.338 -2.299,3.982 v 55.448 c 0.003,2.353 2.601,3.823 4.639,2.649 l 48.047,-27.679 c 1.423,-0.82 2.246,-2.339 2.245,-3.982 L 284.297,3.993 C 284.295,1.641 281.749,0.171 279.71,1.345 m -65.91,117.932 -13.352,7.693 c -0.396,0.227 -0.639,0.649 -0.639,1.106 l -0.001,15.409 c 0.001,0.655 0.724,1.063 1.291,0.737 l 13.352,-7.693 c 0.396,-0.227 0.625,-0.649 0.624,-1.106 v -15.41 c 0,-0.654 -0.708,-1.062 -1.275,-0.736 m -7.781,-14.219 -19.997,-11.57 c -0.592,-0.342 -1.323,-0.342 -1.916,0 l -19.996,11.57 c -0.848,0.491 -0.848,1.716 0,2.207 l 19.996,11.57 c 0.593,0.343 1.324,0.343 1.916,0 l 19.997,-11.57 c 0.848,-0.491 0.848,-1.716 0,-2.207 m 32.192,2.086 8.884,5.14 c 0.527,0.305 1.176,0.305 1.703,0 l 8.884,-5.14 c 0.754,-0.437 0.754,-1.526 0,-1.962 l -8.884,-5.141 c -0.527,-0.305 -1.176,-0.305 -1.703,0 l -8.884,5.141 c -0.754,0.436 -0.754,1.525 0,1.962 m -7.147,12.372 8.894,5.124 c 0.527,0.303 0.852,0.866 0.851,1.474 l -0.01,10.264 c -0.001,0.872 -0.943,1.416 -1.699,0.981 l -8.893,-5.124 c -0.528,-0.303 -0.841,-0.867 -0.841,-1.474 l -0.001,-10.264 c 0,-0.87 0.944,-1.416 1.699,-0.981"
         id="path3894"
         inkscape:connector-curvature="0" />
    </symbol>
    <linearGradient
       inkscape:collect="always"
       xlink:href="#linearGradient6546"
       id="linearGradient6548"
       x1="6.5278263"
       y1="120.77546"
       x2="280.81451"
       y2="120.77546"
       gradientUnits="userSpaceOnUse" />
    <filter
       inkscape:label="Air Spray"
       inkscape:menu="Scatter"
       inkscape:menu-tooltip="Convert to small scattered particles with some thickness"
       width="2"
       height="2"
       y="-0.5"
       x="-0.5"
       style="color-interpolation-filters:sRGB"
       id="filter6760">
      <feGaussianBlur
         stdDeviation="0.01"
         result="result1"
         id="feGaussianBlur6748" />
      <feBlend
         in2="result1"
         result="fbSourceGraphic"
         mode="multiply"
         id="feBlend6750" />
      <feTurbulence
         baseFrequency="0.8"
         type="fractalNoise"
         seed="0"
         numOctaves="3"
         result="result3"
         id="feTurbulence6752" />
      <feDisplacementMap
         in="fbSourceGraphic"
         xChannelSelector="R"
         yChannelSelector="G"
         scale="50"
         result="result2"
         in2="result3"
         id="feDisplacementMap6754" />
      <feMorphology
         radius="1"
         operator="dilate"
         result="result4"
         id="feMorphology6756" />
      <feBlend
         mode="screen"
         in2="result2"
         id="feBlend6758" />
    </filter>
  </defs>
  <g
     inkscape:groupmode="layer"
     id="layer5"
     inkscape:label="Layer 4"
     transform="translate(98.56382,-33.091224)">
    <rect
       style="fill:#14213d;fill-opacity:1;stroke:#14213d;stroke-width:1.3328917;stroke-opacity:1"
       id="rect4820"
       width="584.85217"
       height="258.66086"
       x="31.618668"
       y="43.542519"
       ry="75.307571" />
  </g>
  <g
     inkscape:groupmode="layer"
     id="layer1"
     inkscape:label="Layer 1"
     style="display:inline"
     transform="translate(180.02707,-38.070044)">
    <rect
       style="fill:#00bf7c;fill-opacity:0;stroke-width:1.41496205"
       id="rect4732"
       width="412.94983"
       height="309.34695"
       x="-87.522377"
       y="-39.568913" />
  </g>
  <g
     inkscape:groupmode="layer"
     id="layer2"
     inkscape:label="Layer 2"
     style="display:inline"
     transform="translate(180.02707,-38.070044)">
    <rect
       style="fill:#080d18;fill-opacity:0;stroke-width:1.84365869"
       id="rect4743"
       width="337.51715"
       height="182.09853"
       x="35.87693"
       y="42.808533" />
    <path
       style="fill:#080d18;fill-opacity:0;stroke-width:1.40896642"
       d="m 98.027052,305.92043 c -0.35349,-0.92871 -5.5714,-19.46927 -11.59536,-41.20124 l -10.95264,-39.51265 h 5.66415 c 4.12401,0 5.87166,0.6428 6.42728,2.36402 0.41972,1.30019 4.1681,16.04146 8.32974,32.75835 4.161638,16.71689 8.077448,30.89477 8.701808,31.5064 0.62436,0.61161 1.58509,-0.60415 2.13495,-2.70171 0.54987,-2.09759 5.04298,-17.36924 9.9847,-33.93703 l 8.98493,-30.12326 5.88531,0.40434 c 4.80941,0.33042 6.09194,1.02171 7.01557,3.78148 0.62165,1.85742 5.24722,16.92278 10.27906,33.47854 5.03183,16.55577 9.61572,29.62534 10.18642,29.04349 0.5707,-0.58185 4.59352,-15.79833 8.93961,-33.8144 l 7.90197,-32.7565 5.51089,-0.001 c 3.26205,-0.001 5.5109,0.64994 5.5109,1.59538 0,1.26287 -12.36618,46.47945 -20.73411,75.81366 -1.42742,5.00391 -1.62613,5.12898 -7.51169,4.72801 l -6.04549,-0.412 -10.31437,-34.12851 c -5.67291,-18.77068 -10.76678,-33.66391 -11.31972,-33.09608 -0.55293,0.56785 -4.44439,12.88623 -8.64769,27.37422 -12.96888,44.70128 -11.12734,40.52579 -17.87338,40.52579 -3.33362,0 -6.094718,-0.72139 -6.462838,-1.68857 z"
       id="path4747"
       inkscape:connector-curvature="0" />
    <path
       style="fill:#080d18;fill-opacity:0;stroke-width:1.40896642"
       d="m 98.027052,305.92043 c -0.35349,-0.92871 -5.5714,-19.46927 -11.59536,-41.20124 l -10.95264,-39.51265 h 5.66415 c 4.12401,0 5.87166,0.6428 6.42728,2.36402 0.41972,1.30019 4.1681,16.04146 8.32974,32.75835 4.161638,16.71689 8.077448,30.89477 8.701808,31.5064 0.62436,0.61161 1.58509,-0.60415 2.13495,-2.70171 0.54987,-2.09759 5.04298,-17.36924 9.9847,-33.93703 l 8.98493,-30.12326 5.88531,0.40434 c 4.80941,0.33042 6.09194,1.02171 7.01557,3.78148 0.62165,1.85742 5.24722,16.92278 10.27906,33.47854 5.03183,16.55577 9.61572,29.62534 10.18642,29.04349 0.5707,-0.58185 4.59352,-15.79833 8.93961,-33.8144 l 7.90197,-32.7565 5.51089,-0.001 c 3.26205,-0.001 5.5109,0.64994 5.5109,1.59538 0,1.26287 -12.36618,46.47945 -20.73411,75.81366 -1.42742,5.00391 -1.62613,5.12898 -7.51169,4.72801 l -6.04549,-0.412 -10.31437,-34.12851 c -5.67291,-18.77068 -10.76678,-33.66391 -11.31972,-33.09608 -0.55293,0.56785 -4.44439,12.88623 -8.64769,27.37422 -12.96888,44.70128 -11.12734,40.52579 -17.87338,40.52579 -3.33362,0 -6.094718,-0.72139 -6.462838,-1.68857 z"
       id="path4749"
       inkscape:connector-curvature="0" />
    <path
       style="fill:#080d18;fill-opacity:0;stroke-width:1.40896642"
       d="m 98.027052,305.92043 c -0.35349,-0.92871 -5.5714,-19.46927 -11.59536,-41.20124 l -10.95264,-39.51265 h 5.66415 c 4.12401,0 5.87166,0.6428 6.42728,2.36402 0.41972,1.30019 4.1681,16.04146 8.32974,32.75835 4.161638,16.71689 8.077448,30.89477 8.701808,31.5064 0.62436,0.61161 1.58509,-0.60415 2.13495,-2.70171 0.54987,-2.09759 5.04298,-17.36924 9.9847,-33.93703 l 8.98493,-30.12326 5.88531,0.40434 c 4.80941,0.33042 6.09194,1.02171 7.01557,3.78148 0.62165,1.85742 5.24722,16.92278 10.27906,33.47854 5.03183,16.55577 9.61572,29.62534 10.18642,29.04349 0.5707,-0.58185 4.59352,-15.79833 8.93961,-33.8144 l 7.90197,-32.7565 5.51089,-0.001 c 3.26205,-0.001 5.5109,0.64994 5.5109,1.59538 0,1.26287 -12.36618,46.47945 -20.73411,75.81366 -1.42742,5.00391 -1.62613,5.12898 -7.51169,4.72801 l -6.04549,-0.412 -10.31437,-34.12851 c -5.67291,-18.77068 -10.76678,-33.66391 -11.31972,-33.09608 -0.55293,0.56785 -4.44439,12.88623 -8.64769,27.37422 -12.96888,44.70128 -11.12734,40.52579 -17.87338,40.52579 -3.33362,0 -6.094718,-0.72139 -6.462838,-1.68857 z"
       id="path4751"
       inkscape:connector-curvature="0" />
    <rect
       style="display:inline;fill:#e5e5e5;fill-opacity:1;stroke:#14213d;stroke-width:2.09343624;stroke-opacity:0"
       id="rect4820-5-3"
       width="400.2291"
       height="263.43909"
       x="-168.03557"
       y="46.481056"
       ry="131.71954" />
    <text
       xml:space="preserve"
       style="font-style:normal;font-variant:normal;font-weight:normal;font-stretch:normal;font-size:176.99124146px;line-height:1.25;font-family:helvetica;-inkscape-font-specification:helvetica;letter-spacing:0px;word-spacing:0.02px;fill:#ffffff;fill-opacity:1;stroke:none;stroke-width:1.84365869"
       x="246.9684"
       y="256.33847"
       id="text3785-5"
       transform="scale(0.94767139,1.0552181)"><tspan
         sodipodi:role="line"
         id="tspan3783-3"
         x="246.9684"
         y="256.33847"
         style="font-size:186.66667175px;letter-spacing:22.70001411px;word-spacing:0px;fill:#ffffff;fill-opacity:1;stroke-width:1.84365869"
         rotate="0 347.79996 347.79996 0">Viz</tspan></text>
  </g>
  <g
     inkscape:groupmode="layer"
     id="layer3"
     inkscape:label="Layer 3"
     transform="translate(180.02707,-38.070044)">
    <text
       xml:space="preserve"
       style="font-style:normal;font-variant:normal;font-weight:normal;font-stretch:normal;font-size:176.99124146px;line-height:1.25;font-family:helvetica;-inkscape-font-specification:helvetica;letter-spacing:0px;word-spacing:0px;fill:#14213d;fill-opacity:1;stroke:none;stroke-width:1.84365869"
       x="-160.24173"
       y="214.4633"
       id="text3785"
       transform="scale(0.94767139,1.0552181)"><tspan
         sodipodi:role="line"
         id="tspan3783"
         x="-160.24173"
         y="214.4633"
         style="font-size:186.66667175px;writing-mode:lr-tb;direction:ltr;fill:#14213d;fill-opacity:1;stroke-width:1.84365869"
         rotate="12.200003 12.200003 12.200003 0">Web</tspan></text>
    <flowRoot
       xml:space="preserve"
       id="flowRoot8447"
       style="font-style:normal;font-variant:normal;font-weight:normal;font-stretch:normal;font-size:40px;line-height:1.25;font-family:helvetica;-inkscape-font-specification:helvetica;letter-spacing:0px;word-spacing:0px;fill:#000000;fill-opacity:1;stroke:none"><flowRegion
         id="flowRegion8449"><rect
           id="rect8451"
           width="341.53256"
           height="168.99852"
           x="67.175148"
           y="155.19768" /></flowRegion><flowPara
         id="flowPara8453"></flowPara></flowRoot>  </g>
</svg>
